<?xml version="1.0" encoding="UTF-8" standalone="no"?>
<svg
   xmlns:dc="http://purl.org/dc/elements/1.1/"
   xmlns:cc="http://creativecommons.org/ns#"
   xmlns:rdf="http://www.w3.org/1999/02/22-rdf-syntax-ns#"
   xmlns:svg="http://www.w3.org/2000/svg"
   xmlns="http://www.w3.org/2000/svg"
   xmlns:sodipodi="http://sodipodi.sourceforge.net/DTD/sodipodi-0.dtd"
   xmlns:inkscape="http://www.inkscape.org/namespaces/inkscape"
   width="340"
   height="255"
   viewBox="0 0 340 255"
   id="svg3531"
   version="1.1"
   inkscape:version="0.48.5 r10040"
   sodipodi:docname="rate.svg">
  <metadata
     id="metadata4037">
    <rdf:RDF>
      <cc:Work
         rdf:about="">
        <dc:format>image/svg+xml</dc:format>
        <dc:type
           rdf:resource="http://purl.org/dc/dcmitype/StillImage" />
      </cc:Work>
    </rdf:RDF>
  </metadata>
  <sodipodi:namedview
     pagecolor="#ffffff"
     bordercolor="#666666"
     borderopacity="1"
     objecttolerance="10"
     gridtolerance="10"
     guidetolerance="10"
     inkscape:pageopacity="0"
     inkscape:pageshadow="2"
     inkscape:window-width="640"
     inkscape:window-height="480"
     id="namedview4035"
     showgrid="false"
     fit-margin-top="0"
     fit-margin-left="0"
     fit-margin-right="0"
     fit-margin-bottom="0"
     inkscape:zoom="0.30849673"
     inkscape:cx="283.5"
     inkscape:cy="382.5"
     inkscape:window-x="0"
     inkscape:window-y="0"
     inkscape:window-maximized="0"
     inkscape:current-layer="svg3531" />
  <title
     id="title3533">
rate.svg
</title>
  <desc
     id="desc3535">
Creator: ROOT Version 5.34/20
CreationDate: Tue Jan 20 15:09:27 2015</desc>
  <defs
     id="defs3537" />
  <rect
     x="0"
     y="0"
     width="340"
     height="255"
     id="rect3539"
     style="fill:#ffffff" />
  <rect
     x="0"
     y="0"
     width="340"
     height="255"
     id="rect3541"
     style="fill:#ffffff" />
  <rect
     x="0"
     y="24"
     width="340"
     height="231"
     id="rect3543"
     style="fill:#ffffff" />
  <rect
     x="0"
     y="24"
     width="340"
     height="231"
     id="rect3545"
     style="fill:#ffffff" />
  <rect
     x="34"
     y="47"
     width="272"
     height="185"
     id="rect3547"
     style="fill:#ffffff" />
  <rect
     x="34"
     y="47"
     width="272"
     height="185"
     id="rect3549"
     style="fill:none;stroke:#000000" />
  <text
     x="135"
     y="35"
     font-size="11"
     id="text3551"
     style="font-size:11px;fill:#000000;font-family:Helvetica">Jump response</text>
  <path
     d="M 34,232 H 306"
     id="path3553"
     inkscape:connector-curvature="0"
     style="fill:none;stroke:#000000" />
  <text
     x="294"
     y="247"
     font-size="7"
     id="text3555"
     style="font-size:7px;fill:#000000;font-family:Helvetica">t (s)</text>
  <path
     d="m 34,226 v 6"
     id="path3557"
     inkscape:connector-curvature="0"
     style="fill:none;stroke:#000000" />
  <path
     d="m 43,229 v 3"
     id="path3559"
     inkscape:connector-curvature="0"
     style="fill:none;stroke:#000000" />
  <path
     d="m 52,229 v 3"
     id="path3561"
     inkscape:connector-curvature="0"
     style="fill:none;stroke:#000000" />
  <path
     d="m 61,229 v 3"
     id="path3563"
     inkscape:connector-curvature="0"
     style="fill:none;stroke:#000000" />
  <path
     d="m 70,229 v 3"
     id="path3565"
     inkscape:connector-curvature="0"
     style="fill:none;stroke:#000000" />
  <path
     d="m 79,226 v 6"
     id="path3567"
     inkscape:connector-curvature="0"
     style="fill:none;stroke:#000000" />
  <path
     d="m 88,229 v 3"
     id="path3569"
     inkscape:connector-curvature="0"
     style="fill:none;stroke:#000000" />
  <path
     d="m 98,229 v 3"
     id="path3571"
     inkscape:connector-curvature="0"
     style="fill:none;stroke:#000000" />
  <path
     d="m 107,229 v 3"
     id="path3573"
     inkscape:connector-curvature="0"
     style="fill:none;stroke:#000000" />
  <path
     d="m 116,229 v 3"
     id="path3575"
     inkscape:connector-curvature="0"
     style="fill:none;stroke:#000000" />
  <path
     d="m 125,226 v 6"
     id="path3577"
     inkscape:connector-curvature="0"
     style="fill:none;stroke:#000000" />
  <path
     d="m 134,229 v 3"
     id="path3579"
     inkscape:connector-curvature="0"
     style="fill:none;stroke:#000000" />
  <path
     d="m 143,229 v 3"
     id="path3581"
     inkscape:connector-curvature="0"
     style="fill:none;stroke:#000000" />
  <path
     d="m 152,229 v 3"
     id="path3583"
     inkscape:connector-curvature="0"
     style="fill:none;stroke:#000000" />
  <path
     d="m 161,229 v 3"
     id="path3585"
     inkscape:connector-curvature="0"
     style="fill:none;stroke:#000000" />
  <path
     d="m 170,226 v 6"
     id="path3587"
     inkscape:connector-curvature="0"
     style="fill:none;stroke:#000000" />
  <path
     d="m 179,229 v 3"
     id="path3589"
     inkscape:connector-curvature="0"
     style="fill:none;stroke:#000000" />
  <path
     d="m 188,229 v 3"
     id="path3591"
     inkscape:connector-curvature="0"
     style="fill:none;stroke:#000000" />
  <path
     d="m 197,229 v 3"
     id="path3593"
     inkscape:connector-curvature="0"
     style="fill:none;stroke:#000000" />
  <path
     d="m 206,229 v 3"
     id="path3595"
     inkscape:connector-curvature="0"
     style="fill:none;stroke:#000000" />
  <path
     d="m 215,226 v 6"
     id="path3597"
     inkscape:connector-curvature="0"
     style="fill:none;stroke:#000000" />
  <path
     d="m 225,229 v 3"
     id="path3599"
     inkscape:connector-curvature="0"
     style="fill:none;stroke:#000000" />
  <path
     d="m 234,229 v 3"
     id="path3601"
     inkscape:connector-curvature="0"
     style="fill:none;stroke:#000000" />
  <path
     d="m 243,229 v 3"
     id="path3603"
     inkscape:connector-curvature="0"
     style="fill:none;stroke:#000000" />
  <path
     d="m 252,229 v 3"
     id="path3605"
     inkscape:connector-curvature="0"
     style="fill:none;stroke:#000000" />
  <path
     d="m 261,226 v 6"
     id="path3607"
     inkscape:connector-curvature="0"
     style="fill:none;stroke:#000000" />
  <path
     d="m 270,229 v 3"
     id="path3609"
     inkscape:connector-curvature="0"
     style="fill:none;stroke:#000000" />
  <path
     d="m 279,229 v 3"
     id="path3611"
     inkscape:connector-curvature="0"
     style="fill:none;stroke:#000000" />
  <path
     d="m 288,229 v 3"
     id="path3613"
     inkscape:connector-curvature="0"
     style="fill:none;stroke:#000000" />
  <path
     d="m 297,229 v 3"
     id="path3615"
     inkscape:connector-curvature="0"
     style="fill:none;stroke:#000000" />
  <path
     d="m 306,226 v 6"
     id="path3617"
     inkscape:connector-curvature="0"
     style="fill:none;stroke:#000000" />
  <path
     d="m 306,226 v 6"
     id="path3619"
     inkscape:connector-curvature="0"
     style="fill:none;stroke:#000000" />
  <text
     x="32"
     y="239"
     font-size="7"
     id="text3621"
     style="font-size:7px;fill:#000000;font-family:Helvetica">0</text>
  <text
     x="72"
     y="239"
     font-size="7"
     id="text3623"
     style="font-size:7px;fill:#000000;font-family:Helvetica">0.05</text>
  <text
     x="120"
     y="239"
     font-size="7"
     id="text3625"
     style="font-size:7px;fill:#000000;font-family:Helvetica">0.1</text>
  <text
     x="163"
     y="239"
     font-size="7"
     id="text3627"
     style="font-size:7px;fill:#000000;font-family:Helvetica">0.15</text>
  <text
     x="210"
     y="239"
     font-size="7"
     id="text3629"
     style="font-size:7px;fill:#000000;font-family:Helvetica">0.2</text>
  <text
     x="254"
     y="239"
     font-size="7"
     id="text3631"
     style="font-size:7px;fill:#000000;font-family:Helvetica">0.25</text>
  <text
     x="301"
     y="239"
     font-size="7"
     id="text3633"
     style="font-size:7px;fill:#000000;font-family:Helvetica">0.3</text>
  <path
     d="M 34,232 V 47"
     id="path3635"
     inkscape:connector-curvature="0"
     style="fill:none;stroke:#000000" />
  <g
     transform="matrix(0,-1,1,0,-573,97)"
     id="g3637">
    <text
       x="17"
       y="590"
       font-size="7"
       id="text3639"
       style="font-size:7px;fill:#000000;font-family:Helvetica">f (spikes/s)</text>
  </g>
  <path
     d="M 42,232 H 34"
     id="path3641"
     inkscape:connector-curvature="0"
     style="fill:none;stroke:#000000" />
  <path
     d="M 38,227 H 34"
     id="path3643"
     inkscape:connector-curvature="0"
     style="fill:none;stroke:#000000" />
  <path
     d="M 38,223 H 34"
     id="path3645"
     inkscape:connector-curvature="0"
     style="fill:none;stroke:#000000" />
  <path
     d="M 38,218 H 34"
     id="path3647"
     inkscape:connector-curvature="0"
     style="fill:none;stroke:#000000" />
  <path
     d="M 42,213 H 34"
     id="path3649"
     inkscape:connector-curvature="0"
     style="fill:none;stroke:#000000" />
  <path
     d="M 38,209 H 34"
     id="path3651"
     inkscape:connector-curvature="0"
     style="fill:none;stroke:#000000" />
  <path
     d="M 38,204 H 34"
     id="path3653"
     inkscape:connector-curvature="0"
     style="fill:none;stroke:#000000" />
  <path
     d="M 38,200 H 34"
     id="path3655"
     inkscape:connector-curvature="0"
     style="fill:none;stroke:#000000" />
  <path
     d="M 42,195 H 34"
     id="path3657"
     inkscape:connector-curvature="0"
     style="fill:none;stroke:#000000" />
  <path
     d="M 38,190 H 34"
     id="path3659"
     inkscape:connector-curvature="0"
     style="fill:none;stroke:#000000" />
  <path
     d="M 38,186 H 34"
     id="path3661"
     inkscape:connector-curvature="0"
     style="fill:none;stroke:#000000" />
  <path
     d="M 38,181 H 34"
     id="path3663"
     inkscape:connector-curvature="0"
     style="fill:none;stroke:#000000" />
  <path
     d="M 42,176 H 34"
     id="path3665"
     inkscape:connector-curvature="0"
     style="fill:none;stroke:#000000" />
  <path
     d="M 38,172 H 34"
     id="path3667"
     inkscape:connector-curvature="0"
     style="fill:none;stroke:#000000" />
  <path
     d="M 38,167 H 34"
     id="path3669"
     inkscape:connector-curvature="0"
     style="fill:none;stroke:#000000" />
  <path
     d="M 38,163 H 34"
     id="path3671"
     inkscape:connector-curvature="0"
     style="fill:none;stroke:#000000" />
  <path
     d="M 42,158 H 34"
     id="path3673"
     inkscape:connector-curvature="0"
     style="fill:none;stroke:#000000" />
  <path
     d="M 38,153 H 34"
     id="path3675"
     inkscape:connector-curvature="0"
     style="fill:none;stroke:#000000" />
  <path
     d="M 38,149 H 34"
     id="path3677"
     inkscape:connector-curvature="0"
     style="fill:none;stroke:#000000" />
  <path
     d="M 38,144 H 34"
     id="path3679"
     inkscape:connector-curvature="0"
     style="fill:none;stroke:#000000" />
  <path
     d="M 42,139 H 34"
     id="path3681"
     inkscape:connector-curvature="0"
     style="fill:none;stroke:#000000" />
  <path
     d="M 38,135 H 34"
     id="path3683"
     inkscape:connector-curvature="0"
     style="fill:none;stroke:#000000" />
  <path
     d="M 38,130 H 34"
     id="path3685"
     inkscape:connector-curvature="0"
     style="fill:none;stroke:#000000" />
  <path
     d="M 38,126 H 34"
     id="path3687"
     inkscape:connector-curvature="0"
     style="fill:none;stroke:#000000" />
  <path
     d="M 42,121 H 34"
     id="path3689"
     inkscape:connector-curvature="0"
     style="fill:none;stroke:#000000" />
  <path
     d="M 38,116 H 34"
     id="path3691"
     inkscape:connector-curvature="0"
     style="fill:none;stroke:#000000" />
  <path
     d="M 38,112 H 34"
     id="path3693"
     inkscape:connector-curvature="0"
     style="fill:none;stroke:#000000" />
  <path
     d="M 38,107 H 34"
     id="path3695"
     inkscape:connector-curvature="0"
     style="fill:none;stroke:#000000" />
  <path
     d="M 42,102 H 34"
     id="path3697"
     inkscape:connector-curvature="0"
     style="fill:none;stroke:#000000" />
  <path
     d="M 38,98 H 34"
     id="path3699"
     inkscape:connector-curvature="0"
     style="fill:none;stroke:#000000" />
  <path
     d="M 38,93 H 34"
     id="path3701"
     inkscape:connector-curvature="0"
     style="fill:none;stroke:#000000" />
  <path
     d="M 38,89 H 34"
     id="path3703"
     inkscape:connector-curvature="0"
     style="fill:none;stroke:#000000" />
  <path
     d="M 42,84 H 34"
     id="path3705"
     inkscape:connector-curvature="0"
     style="fill:none;stroke:#000000" />
  <path
     d="M 38,79 H 34"
     id="path3707"
     inkscape:connector-curvature="0"
     style="fill:none;stroke:#000000" />
  <path
     d="M 38,75 H 34"
     id="path3709"
     inkscape:connector-curvature="0"
     style="fill:none;stroke:#000000" />
  <path
     d="M 38,70 H 34"
     id="path3711"
     inkscape:connector-curvature="0"
     style="fill:none;stroke:#000000" />
  <path
     d="M 42,65 H 34"
     id="path3713"
     inkscape:connector-curvature="0"
     style="fill:none;stroke:#000000" />
  <path
     d="M 38,61 H 34"
     id="path3715"
     inkscape:connector-curvature="0"
     style="fill:none;stroke:#000000" />
  <path
     d="M 38,56 H 34"
     id="path3717"
     inkscape:connector-curvature="0"
     style="fill:none;stroke:#000000" />
  <path
     d="M 38,52 H 34"
     id="path3719"
     inkscape:connector-curvature="0"
     style="fill:none;stroke:#000000" />
  <path
     d="M 42,47 H 34"
     id="path3721"
     inkscape:connector-curvature="0"
     style="fill:none;stroke:#000000" />
  <text
     x="29"
     y="234"
     font-size="7"
     id="text3723"
     style="font-size:7px;fill:#000000;font-family:Helvetica">0</text>
  <text
     x="29"
     y="216"
     font-size="7"
     id="text3725"
     style="font-size:7px;fill:#000000;font-family:Helvetica">2</text>
  <text
     x="29"
     y="198"
     font-size="7"
     id="text3727"
     style="font-size:7px;fill:#000000;font-family:Helvetica">4</text>
  <text
     x="29"
     y="179"
     font-size="7"
     id="text3729"
     style="font-size:7px;fill:#000000;font-family:Helvetica">6</text>
  <text
     x="29"
     y="160"
     font-size="7"
     id="text3731"
     style="font-size:7px;fill:#000000;font-family:Helvetica">8</text>
  <text
     x="25"
     y="142"
     font-size="7"
     id="text3733"
     style="font-size:7px;fill:#000000;font-family:Helvetica">10</text>
  <text
     x="25"
     y="124"
     font-size="7"
     id="text3735"
     style="font-size:7px;fill:#000000;font-family:Helvetica">12</text>
  <text
     x="25"
     y="105"
     font-size="7"
     id="text3737"
     style="font-size:7px;fill:#000000;font-family:Helvetica">14</text>
  <text
     x="25"
     y="86"
     font-size="7"
     id="text3739"
     style="font-size:7px;fill:#000000;font-family:Helvetica">16</text>
  <text
     x="25"
     y="68"
     font-size="7"
     id="text3741"
     style="font-size:7px;fill:#000000;font-family:Helvetica">18</text>
  <text
     x="25"
     y="49"
     font-size="7"
     id="text3743"
     style="font-size:7px;fill:#000000;font-family:Helvetica">20</text>
  <path
     d="m 34,232 h 26 v -1 h 2 l 1,-1 h 1 l 1,-1 v -1 h 1 v -1 h 1 v -1 l 1,-1 v -2 l 1,-1 v -1 l 1,-1 v -2 l 1,-2 v -1 l 1,-2 v -2 l 1,-1 v -4 l 1,-2 v -2 l 1,-3 v -4 l 1,-3 v -3 l 1,-2 v -3 l 1,-3 v -6 l 1,-3 v -3 l 1,-3 v -6 l 1,-3 v -3 l 1,-4 v -3 l 1,-3 v -7 l 1,-3 v -3 l 1,-3 v -6 l 1,-4 v -3 l 1,-3 v -2 l 1,-3 v -6 l 1,-2 v -3 l 1,-2 v -3 l 1,-2 v -4 l 1,-2 v -2 l 1,-2 v -4 l 1,-1 v -2 l 1,-1 v -1 l 1,-1 v -2 l 1,-1 v -1 h 1 v -1 l 1,-1 h 3 v 1 h 1 v 1 l 1,1 v 1 h 1 v 1 l 1,1 v 2 l 1,1 v 1 l 1,1 v 1 l 1,2 v 2 l 1,1 v 2 l 1,1 v 3 l 1,1 v 2 l 1,1 v 2 l 1,1 v 3 l 1,2 v 1 l 1,2 v 3 l 1,1 v 2 l 1,1 v 2 l 1,1 v 3 l 1,2 v 1 l 1,2 v 2 l 1,2 v 1 l 1,1 v 1 l 1,2 v 2 l 1,1 v 1 l 1,1 v 1 l 1,1 v 2 l 1,1 v 1 l 1,1 v 1 l 1,1 1,1 v 1 h 1 v 1 l 1,1 h 1 v 1 h 2 v 1 h 3 v -1 h 2 l 1,-1 1,-1 h 1 v -1 h 1 v -1 l 1,-1 1,-1 v -1 l 1,-1 1,-1 1,-1 v -1 l 1,-1 1,-1 v -1 l 1,-1 v -1 h 1 v -1 l 1,-1 v -1 l 1,-1 1,-1 v -1 l 1,-1 1,-1 v -1 h 1 v -1 l 1,-1 1,-1 1,-1 v -1 h 1 v -1 h 1 v -1 h 1 v -1 h 2 v -1 h 1 v -1 h 2 l 1,-1 h 6 v 1 h 3 v 1 h 2 v 1 h 2 v 1 h 1 v 1 h 2 v 1 h 1 v 1 h 2 v 1 h 1 v 1 h 1 l 1,1 h 1 l 1,1 1,1 h 2 v 1 h 1 l 1,1 h 2 v 1 h 3 v 1 h 13 v -1 h 4 v -1 h 3 l 1,-1 h 2 l 1,-1 h 3 v -1 h 4 v -1 h 6 v -1 h 13 l 1,1 h 8 v 1 h 8 v 1 h 32 v -1 h 1"
     id="path3745"
     inkscape:connector-curvature="0"
     style="fill:none;stroke:#000000" />
  <path
     d="M 57,232"
     id="path3747"
     inkscape:connector-curvature="0"
     style="fill:none;stroke:#ff0000" />
  <path
     d="m 56,232 h 2"
     id="path3749"
     inkscape:connector-curvature="0"
     style="fill:none;stroke:#ff0000" />
  <path
     d="M 57,232"
     id="path3751"
     inkscape:connector-curvature="0"
     style="fill:none;stroke:#ff0000" />
  <path
     d="m 56,232 h 2"
     id="path3753"
     inkscape:connector-curvature="0"
     style="fill:none;stroke:#ff0000" />
  <path
     d="M 66,227"
     id="path3755"
     inkscape:connector-curvature="0"
     style="fill:none;stroke:#ff0000" />
  <path
     d="m 65,227 h 2"
     id="path3757"
     inkscape:connector-curvature="0"
     style="fill:none;stroke:#ff0000" />
  <path
     d="m 66,227 v 1"
     id="path3759"
     inkscape:connector-curvature="0"
     style="fill:none;stroke:#ff0000" />
  <path
     d="m 65,228 h 2"
     id="path3761"
     inkscape:connector-curvature="0"
     style="fill:none;stroke:#ff0000" />
  <path
     d="m 75,198 v -1"
     id="path3763"
     inkscape:connector-curvature="0"
     style="fill:none;stroke:#ff0000" />
  <path
     d="m 74,197 h 2"
     id="path3765"
     inkscape:connector-curvature="0"
     style="fill:none;stroke:#ff0000" />
  <path
     d="m 75,198 v 1"
     id="path3767"
     inkscape:connector-curvature="0"
     style="fill:none;stroke:#ff0000" />
  <path
     d="m 74,199 h 2"
     id="path3769"
     inkscape:connector-curvature="0"
     style="fill:none;stroke:#ff0000" />
  <path
     d="m 84,135 v -2"
     id="path3771"
     inkscape:connector-curvature="0"
     style="fill:none;stroke:#ff0000" />
  <path
     d="m 83,133 h 2"
     id="path3773"
     inkscape:connector-curvature="0"
     style="fill:none;stroke:#ff0000" />
  <path
     d="m 84,135 v 1"
     id="path3775"
     inkscape:connector-curvature="0"
     style="fill:none;stroke:#ff0000" />
  <path
     d="m 83,136 h 2"
     id="path3777"
     inkscape:connector-curvature="0"
     style="fill:none;stroke:#ff0000" />
  <path
     d="M 93,80 V 78"
     id="path3779"
     inkscape:connector-curvature="0"
     style="fill:none;stroke:#ff0000" />
  <path
     d="m 92,78 h 2"
     id="path3781"
     inkscape:connector-curvature="0"
     style="fill:none;stroke:#ff0000" />
  <path
     d="m 93,80 v 2"
     id="path3783"
     inkscape:connector-curvature="0"
     style="fill:none;stroke:#ff0000" />
  <path
     d="m 92,82 h 2"
     id="path3785"
     inkscape:connector-curvature="0"
     style="fill:none;stroke:#ff0000" />
  <path
     d="M 102,62 V 61"
     id="path3787"
     inkscape:connector-curvature="0"
     style="fill:none;stroke:#ff0000" />
  <path
     d="m 101,61 h 2"
     id="path3789"
     inkscape:connector-curvature="0"
     style="fill:none;stroke:#ff0000" />
  <path
     d="m 102,62 v 2"
     id="path3791"
     inkscape:connector-curvature="0"
     style="fill:none;stroke:#ff0000" />
  <path
     d="m 101,64 h 2"
     id="path3793"
     inkscape:connector-curvature="0"
     style="fill:none;stroke:#ff0000" />
  <path
     d="M 111,87 V 85"
     id="path3795"
     inkscape:connector-curvature="0"
     style="fill:none;stroke:#ff0000" />
  <path
     d="m 110,85 h 2"
     id="path3797"
     inkscape:connector-curvature="0"
     style="fill:none;stroke:#ff0000" />
  <path
     d="m 111,87 v 1"
     id="path3799"
     inkscape:connector-curvature="0"
     style="fill:none;stroke:#ff0000" />
  <path
     d="m 110,88 h 2"
     id="path3801"
     inkscape:connector-curvature="0"
     style="fill:none;stroke:#ff0000" />
  <path
     d="m 120,115 v -2"
     id="path3803"
     inkscape:connector-curvature="0"
     style="fill:none;stroke:#ff0000" />
  <path
     d="m 119,113 h 2"
     id="path3805"
     inkscape:connector-curvature="0"
     style="fill:none;stroke:#ff0000" />
  <path
     d="m 120,115 v 1"
     id="path3807"
     inkscape:connector-curvature="0"
     style="fill:none;stroke:#ff0000" />
  <path
     d="m 119,116 h 2"
     id="path3809"
     inkscape:connector-curvature="0"
     style="fill:none;stroke:#ff0000" />
  <path
     d="m 129,138 v -1"
     id="path3811"
     inkscape:connector-curvature="0"
     style="fill:none;stroke:#ff0000" />
  <path
     d="m 128,137 h 2"
     id="path3813"
     inkscape:connector-curvature="0"
     style="fill:none;stroke:#ff0000" />
  <path
     d="m 129,138 v 2"
     id="path3815"
     inkscape:connector-curvature="0"
     style="fill:none;stroke:#ff0000" />
  <path
     d="m 128,140 h 2"
     id="path3817"
     inkscape:connector-curvature="0"
     style="fill:none;stroke:#ff0000" />
  <path
     d="m 138,148 v -1"
     id="path3819"
     inkscape:connector-curvature="0"
     style="fill:none;stroke:#ff0000" />
  <path
     d="m 137,147 h 2"
     id="path3821"
     inkscape:connector-curvature="0"
     style="fill:none;stroke:#ff0000" />
  <path
     d="m 138,148 v 2"
     id="path3823"
     inkscape:connector-curvature="0"
     style="fill:none;stroke:#ff0000" />
  <path
     d="m 137,150 h 2"
     id="path3825"
     inkscape:connector-curvature="0"
     style="fill:none;stroke:#ff0000" />
  <path
     d="m 147,136 v -1"
     id="path3827"
     inkscape:connector-curvature="0"
     style="fill:none;stroke:#ff0000" />
  <path
     d="m 146,135 h 2"
     id="path3829"
     inkscape:connector-curvature="0"
     style="fill:none;stroke:#ff0000" />
  <path
     d="m 147,136 v 2"
     id="path3831"
     inkscape:connector-curvature="0"
     style="fill:none;stroke:#ff0000" />
  <path
     d="m 146,138 h 2"
     id="path3833"
     inkscape:connector-curvature="0"
     style="fill:none;stroke:#ff0000" />
  <path
     d="m 156,128 v -1"
     id="path3835"
     inkscape:connector-curvature="0"
     style="fill:none;stroke:#ff0000" />
  <path
     d="m 155,127 h 2"
     id="path3837"
     inkscape:connector-curvature="0"
     style="fill:none;stroke:#ff0000" />
  <path
     d="m 156,128 v 2"
     id="path3839"
     inkscape:connector-curvature="0"
     style="fill:none;stroke:#ff0000" />
  <path
     d="m 155,130 h 2"
     id="path3841"
     inkscape:connector-curvature="0"
     style="fill:none;stroke:#ff0000" />
  <path
     d="m 166,116 v -1"
     id="path3843"
     inkscape:connector-curvature="0"
     style="fill:none;stroke:#ff0000" />
  <path
     d="m 165,115 h 2"
     id="path3845"
     inkscape:connector-curvature="0"
     style="fill:none;stroke:#ff0000" />
  <path
     d="m 166,116 v 2"
     id="path3847"
     inkscape:connector-curvature="0"
     style="fill:none;stroke:#ff0000" />
  <path
     d="m 165,118 h 2"
     id="path3849"
     inkscape:connector-curvature="0"
     style="fill:none;stroke:#ff0000" />
  <path
     d="m 175,112 v -2"
     id="path3851"
     inkscape:connector-curvature="0"
     style="fill:none;stroke:#ff0000" />
  <path
     d="m 174,110 h 2"
     id="path3853"
     inkscape:connector-curvature="0"
     style="fill:none;stroke:#ff0000" />
  <path
     d="m 175,112 v 1"
     id="path3855"
     inkscape:connector-curvature="0"
     style="fill:none;stroke:#ff0000" />
  <path
     d="m 174,113 h 2"
     id="path3857"
     inkscape:connector-curvature="0"
     style="fill:none;stroke:#ff0000" />
  <path
     d="m 184,112 v -1"
     id="path3859"
     inkscape:connector-curvature="0"
     style="fill:none;stroke:#ff0000" />
  <path
     d="m 183,111 h 2"
     id="path3861"
     inkscape:connector-curvature="0"
     style="fill:none;stroke:#ff0000" />
  <path
     d="m 184,112 v 2"
     id="path3863"
     inkscape:connector-curvature="0"
     style="fill:none;stroke:#ff0000" />
  <path
     d="m 183,114 h 2"
     id="path3865"
     inkscape:connector-curvature="0"
     style="fill:none;stroke:#ff0000" />
  <path
     d="m 193,118 v -2"
     id="path3867"
     inkscape:connector-curvature="0"
     style="fill:none;stroke:#ff0000" />
  <path
     d="m 192,116 h 2"
     id="path3869"
     inkscape:connector-curvature="0"
     style="fill:none;stroke:#ff0000" />
  <path
     d="m 193,118 v 1"
     id="path3871"
     inkscape:connector-curvature="0"
     style="fill:none;stroke:#ff0000" />
  <path
     d="m 192,119 h 2"
     id="path3873"
     inkscape:connector-curvature="0"
     style="fill:none;stroke:#ff0000" />
  <path
     d="m 202,125 v -1"
     id="path3875"
     inkscape:connector-curvature="0"
     style="fill:none;stroke:#ff0000" />
  <path
     d="m 201,124 h 2"
     id="path3877"
     inkscape:connector-curvature="0"
     style="fill:none;stroke:#ff0000" />
  <path
     d="m 202,125 v 1"
     id="path3879"
     inkscape:connector-curvature="0"
     style="fill:none;stroke:#ff0000" />
  <path
     d="m 201,126 h 2"
     id="path3881"
     inkscape:connector-curvature="0"
     style="fill:none;stroke:#ff0000" />
  <path
     d="m 211,127 v -2"
     id="path3883"
     inkscape:connector-curvature="0"
     style="fill:none;stroke:#ff0000" />
  <path
     d="m 210,125 h 2"
     id="path3885"
     inkscape:connector-curvature="0"
     style="fill:none;stroke:#ff0000" />
  <path
     d="m 211,127 v 1"
     id="path3887"
     inkscape:connector-curvature="0"
     style="fill:none;stroke:#ff0000" />
  <path
     d="m 210,128 h 2"
     id="path3889"
     inkscape:connector-curvature="0"
     style="fill:none;stroke:#ff0000" />
  <path
     d="m 220,125 v -1"
     id="path3891"
     inkscape:connector-curvature="0"
     style="fill:none;stroke:#ff0000" />
  <path
     d="m 219,124 h 2"
     id="path3893"
     inkscape:connector-curvature="0"
     style="fill:none;stroke:#ff0000" />
  <path
     d="m 220,125 v 2"
     id="path3895"
     inkscape:connector-curvature="0"
     style="fill:none;stroke:#ff0000" />
  <path
     d="m 219,127 h 2"
     id="path3897"
     inkscape:connector-curvature="0"
     style="fill:none;stroke:#ff0000" />
  <path
     d="m 229,121 v -1"
     id="path3899"
     inkscape:connector-curvature="0"
     style="fill:none;stroke:#ff0000" />
  <path
     d="m 228,120 h 2"
     id="path3901"
     inkscape:connector-curvature="0"
     style="fill:none;stroke:#ff0000" />
  <path
     d="m 229,121 v 2"
     id="path3903"
     inkscape:connector-curvature="0"
     style="fill:none;stroke:#ff0000" />
  <path
     d="m 228,123 h 2"
     id="path3905"
     inkscape:connector-curvature="0"
     style="fill:none;stroke:#ff0000" />
  <path
     d="m 238,122 v -2"
     id="path3907"
     inkscape:connector-curvature="0"
     style="fill:none;stroke:#ff0000" />
  <path
     d="m 237,120 h 2"
     id="path3909"
     inkscape:connector-curvature="0"
     style="fill:none;stroke:#ff0000" />
  <path
     d="m 238,122 v 1"
     id="path3911"
     inkscape:connector-curvature="0"
     style="fill:none;stroke:#ff0000" />
  <path
     d="m 237,123 h 2"
     id="path3913"
     inkscape:connector-curvature="0"
     style="fill:none;stroke:#ff0000" />
  <path
     d="m 247,121 v -2"
     id="path3915"
     inkscape:connector-curvature="0"
     style="fill:none;stroke:#ff0000" />
  <path
     d="m 246,119 h 2"
     id="path3917"
     inkscape:connector-curvature="0"
     style="fill:none;stroke:#ff0000" />
  <path
     d="m 247,121 v 1"
     id="path3919"
     inkscape:connector-curvature="0"
     style="fill:none;stroke:#ff0000" />
  <path
     d="m 246,122 h 2"
     id="path3921"
     inkscape:connector-curvature="0"
     style="fill:none;stroke:#ff0000" />
  <path
     d="m 256,120 v -2"
     id="path3923"
     inkscape:connector-curvature="0"
     style="fill:none;stroke:#ff0000" />
  <path
     d="m 255,118 h 2"
     id="path3925"
     inkscape:connector-curvature="0"
     style="fill:none;stroke:#ff0000" />
  <path
     d="m 256,120 v 1"
     id="path3927"
     inkscape:connector-curvature="0"
     style="fill:none;stroke:#ff0000" />
  <path
     d="m 255,121 h 2"
     id="path3929"
     inkscape:connector-curvature="0"
     style="fill:none;stroke:#ff0000" />
  <path
     d="m 265,121 v -2"
     id="path3931"
     inkscape:connector-curvature="0"
     style="fill:none;stroke:#ff0000" />
  <path
     d="m 264,119 h 2"
     id="path3933"
     inkscape:connector-curvature="0"
     style="fill:none;stroke:#ff0000" />
  <path
     d="m 265,121 v 1"
     id="path3935"
     inkscape:connector-curvature="0"
     style="fill:none;stroke:#ff0000" />
  <path
     d="m 264,122 h 2"
     id="path3937"
     inkscape:connector-curvature="0"
     style="fill:none;stroke:#ff0000" />
  <path
     d="m 274,122 v -1"
     id="path3939"
     inkscape:connector-curvature="0"
     style="fill:none;stroke:#ff0000" />
  <path
     d="m 273,121 h 2"
     id="path3941"
     inkscape:connector-curvature="0"
     style="fill:none;stroke:#ff0000" />
  <path
     d="m 274,122 v 1"
     id="path3943"
     inkscape:connector-curvature="0"
     style="fill:none;stroke:#ff0000" />
  <path
     d="m 273,123 h 2"
     id="path3945"
     inkscape:connector-curvature="0"
     style="fill:none;stroke:#ff0000" />
  <path
     d="m 283,123 v -1"
     id="path3947"
     inkscape:connector-curvature="0"
     style="fill:none;stroke:#ff0000" />
  <path
     d="m 282,122 h 2"
     id="path3949"
     inkscape:connector-curvature="0"
     style="fill:none;stroke:#ff0000" />
  <path
     d="m 283,123 v 2"
     id="path3951"
     inkscape:connector-curvature="0"
     style="fill:none;stroke:#ff0000" />
  <path
     d="m 282,125 h 2"
     id="path3953"
     inkscape:connector-curvature="0"
     style="fill:none;stroke:#ff0000" />
  <path
     d="m 293,123 v -2"
     id="path3955"
     inkscape:connector-curvature="0"
     style="fill:none;stroke:#ff0000" />
  <path
     d="m 292,121 h 2"
     id="path3957"
     inkscape:connector-curvature="0"
     style="fill:none;stroke:#ff0000" />
  <path
     d="m 293,123 v 1"
     id="path3959"
     inkscape:connector-curvature="0"
     style="fill:none;stroke:#ff0000" />
  <path
     d="m 292,124 h 2"
     id="path3961"
     inkscape:connector-curvature="0"
     style="fill:none;stroke:#ff0000" />
  <path
     d="m 302,126 v -2"
     id="path3963"
     inkscape:connector-curvature="0"
     style="fill:none;stroke:#ff0000" />
  <path
     d="m 301,124 h 2"
     id="path3965"
     inkscape:connector-curvature="0"
     style="fill:none;stroke:#ff0000" />
  <path
     d="m 302,126 v 1"
     id="path3967"
     inkscape:connector-curvature="0"
     style="fill:none;stroke:#ff0000" />
  <path
     d="m 301,127 h 2"
     id="path3969"
     inkscape:connector-curvature="0"
     style="fill:none;stroke:#ff0000" />
  <g
     id="g3971"
     style="fill:none;stroke:#000000;stroke-width:1"
     transform="translate(0,-510)">
    <line
       x1="38"
       y1="742"
       x2="39"
       y2="742"
       id="line3973" />
    <line
       x1="47"
       y1="742"
       x2="48"
       y2="742"
       id="line3975" />
    <line
       x1="56"
       y1="742"
       x2="57"
       y2="742"
       id="line3977" />
    <line
       x1="65"
       y1="737"
       x2="66"
       y2="737"
       id="line3979" />
    <line
       x1="74"
       y1="708"
       x2="75"
       y2="708"
       id="line3981" />
    <line
       x1="83"
       y1="645"
       x2="84"
       y2="645"
       id="line3983" />
    <line
       x1="92"
       y1="590"
       x2="93"
       y2="590"
       id="line3985" />
    <line
       x1="101"
       y1="572"
       x2="102"
       y2="572"
       id="line3987" />
    <line
       x1="110"
       y1="597"
       x2="111"
       y2="597"
       id="line3989" />
    <line
       x1="119"
       y1="625"
       x2="120"
       y2="625"
       id="line3991" />
    <line
       x1="128"
       y1="648"
       x2="129"
       y2="648"
       id="line3993" />
    <line
       x1="137"
       y1="658"
       x2="138"
       y2="658"
       id="line3995" />
    <line
       x1="146"
       y1="646"
       x2="147"
       y2="646"
       id="line3997" />
    <line
       x1="155"
       y1="638"
       x2="156"
       y2="638"
       id="line3999" />
    <line
       x1="165"
       y1="626"
       x2="166"
       y2="626"
       id="line4001" />
    <line
       x1="174"
       y1="622"
       x2="175"
       y2="622"
       id="line4003" />
    <line
       x1="183"
       y1="622"
       x2="184"
       y2="622"
       id="line4005" />
    <line
       x1="192"
       y1="628"
       x2="193"
       y2="628"
       id="line4007" />
    <line
       x1="201"
       y1="635"
       x2="202"
       y2="635"
       id="line4009" />
    <line
       x1="210"
       y1="637"
       x2="211"
       y2="637"
       id="line4011" />
    <line
       x1="219"
       y1="635"
       x2="220"
       y2="635"
       id="line4013" />
    <line
       x1="228"
       y1="631"
       x2="229"
       y2="631"
       id="line4015" />
    <line
       x1="237"
       y1="632"
       x2="238"
       y2="632"
       id="line4017" />
    <line
       x1="246"
       y1="631"
       x2="247"
       y2="631"
       id="line4019" />
    <line
       x1="255"
       y1="630"
       x2="256"
       y2="630"
       id="line4021" />
    <line
       x1="264"
       y1="631"
       x2="265"
       y2="631"
       id="line4023" />
    <line
       x1="273"
       y1="632"
       x2="274"
       y2="632"
       id="line4025" />
    <line
       x1="282"
       y1="633"
       x2="283"
       y2="633"
       id="line4027" />
    <line
       x1="292"
       y1="633"
       x2="293"
       y2="633"
       id="line4029" />
    <line
       x1="301"
       y1="636"
       x2="302"
       y2="636"
       id="line4031" />
  </g>
  <text
     x="135"
     y="35"
     font-size="11"
     id="text4033"
     style="font-size:11px;fill:#000000;font-family:Helvetica">Jump response</text>
</svg>
